<svg viewBox="0 0 400 400" xmlns="http://www.w3.org/2000/svg">
  <!-- Background -->
  <defs>
    <linearGradient id="bgGradient" x1="0%" y1="0%" x2="100%" y2="100%">
      <stop offset="0%" style="stop-color:#f3e8ff;stop-opacity:1" />
      <stop offset="100%" style="stop-color:#ede9fe;stop-opacity:1" />
    </linearGradient>
  </defs>

  <rect width="400" height="400" fill="url(#bgGradient)"/>

  <!-- Person on left side -->
  <g id="person">
    <!-- Head -->
    <circle cx="80" cy="100" r="35" fill="#d4a373"/>

    <!-- Hair -->
    <path d="M 45 100 Q 45 65 80 65 Q 115 65 115 100" fill="#8b6f47"/>

    <!-- Body -->
    <rect x="55" y="140" width="50" height="70" rx="5" fill="#7c3aed"/>

    <!-- Arms -->
    <rect x="20" y="155" width="35" height="20" rx="10" fill="#d4a373"/>
    <rect x="105" y="155" width="35" height="20" rx="10" fill="#d4a373"/>

    <!-- Legs -->
    <rect x="60" y="215" width="15" height="50" fill="#3f3f3f"/>
    <rect x="75" y="215" width="15" height="50" fill="#3f3f3f"/>
  </g>

  <!-- Computer on right side -->
  <g id="computer">
    <!-- Monitor stand -->
    <rect x="260" y="220" width="80" height="10" rx="2" fill="#4b5563"/>

    <!-- Monitor base -->
    <polygon points="260,225 265,235 335,235 340,225" fill="#374151"/>

    <!-- Monitor body -->
    <rect x="245" y="80" width="110" height="150" rx="8" fill="#1f2937"/>

    <!-- Monitor bezel -->
    <rect x="250" y="85" width="100" height="135" rx="5" fill="#111827"/>

    <!-- Screen -->
    <rect x="260" y="95" width="80" height="110" rx="3" fill="#e0f2fe"/>

    <!-- Chat messages on screen -->
    <rect x="268" y="105" width="35" height="12" rx="2" fill="#7c3aed" opacity="0.8"/>
    <rect x="268" y="122" width="40" height="12" rx="2" fill="#06b6d4" opacity="0.8"/>
    <rect x="268" y="139" width="32" height="12" rx="2" fill="#7c3aed" opacity="0.8"/>
    <rect x="268" y="156" width="38" height="12" rx="2" fill="#06b6d4" opacity="0.8"/>
    <rect x="268" y="173" width="28" height="12" rx="2" fill="#7c3aed" opacity="0.8"/>

    <!-- Keyboard -->
    <rect x="250" y="240" width="100" height="15" rx="2" fill="#374151"/>

    <!-- Keyboard keys detail -->
    <g opacity="0.6">
      <circle cx="258" cy="247" r="2" fill="#9ca3af"/>
      <circle cx="268" cy="247" r="2" fill="#9ca3af"/>
      <circle cx="278" cy="247" r="2" fill="#9ca3af"/>
      <circle cx="288" cy="247" r="2" fill="#9ca3af"/>
      <circle cx="298" cy="247" r="2" fill="#9ca3af"/>
      <circle cx="308" cy="247" r="2" fill="#9ca3af"/>
      <circle cx="318" cy="247" r="2" fill="#9ca3af"/>
    </g>
  </g>

  <!-- Connection line -->
  <line x1="125" y1="160" x2="245" y2="160" stroke="#7c3aed" stroke-width="3" opacity="0.5" stroke-dasharray="5,5"/>

  <!-- Dots on connection line (animation effect) -->
  <circle cx="140" cy="160" r="2" fill="#7c3aed" opacity="0.8"/>
  <circle cx="190" cy="160" r="2" fill="#7c3aed" opacity="0.6"/>
  <circle cx="230" cy="160" r="2" fill="#7c3aed" opacity="0.4"/>
</svg>
